<svg width="180" height="24" viewBox="0 0 180 24" fill="none" xmlns="http://www.w3.org/2000/svg">
<path fill-rule="evenodd" clip-rule="evenodd" d="M21.901 0C23.0602 0 24 0.935 24 2.0884V21.8334C24 23.03 23.025 24 21.8224 24H2.099C0.9398 24 0 23.065 0 21.9116V2.0884C0 0.935 0.9398 0 2.099 0H21.901Z" fill="url(#paint0_linear_44_160)"/>
<path d="M17.7938 6.133C17.0932 5.4324 16.1264 5 15.0582 5H5.4736V19H8.059V12.736H15.0582C17.2928 12.736 18.9266 11.0038 18.9266 8.8676C18.9266 7.7994 18.4936 6.8326 17.7938 6.133ZM15.0582 10.0724H8.1372V7.6636H15.0582C15.7224 7.6636 16.263 8.2034 16.263 8.8676C16.263 9.5318 15.7222 10.0724 15.0582 10.0724Z" fill="white"/>
<path d="M121 4.40625V20.2678H117.629V4.40625H121Z" fill="white"/>
<path d="M104.634 20.2678H101.021L106.526 4.40625H110.87L116.367 20.2678H112.754L108.76 8.03085H108.636L104.634 20.2678ZM104.408 14.0331H112.941V16.6509H104.408V14.0331Z" fill="white"/>
<path d="M95.7041 11.7637L92.6677 11.9496C92.6158 11.6914 92.5042 11.4591 92.3329 11.2525C92.1616 11.0409 91.9359 10.873 91.6556 10.7491C91.3805 10.62 91.0509 10.5555 90.6668 10.5555C90.1529 10.5555 89.7195 10.6639 89.3666 10.8808C89.0136 11.0925 88.8372 11.3765 88.8372 11.7327C88.8372 12.0167 88.9513 12.2568 89.1797 12.453C89.4081 12.6492 89.8 12.8067 90.3554 12.9254L92.5198 13.3591C93.6824 13.5967 94.5492 13.9787 95.1202 14.5054C95.6911 15.032 95.9766 15.7239 95.9766 16.581C95.9766 17.3607 95.7456 18.0448 95.2837 18.6334C94.8269 19.222 94.1989 19.6815 93.3996 20.012C92.6054 20.3373 91.6893 20.4999 90.6512 20.4999C89.0681 20.4999 87.8069 20.1721 86.8674 19.5163C85.9331 18.8554 85.3855 17.957 85.2246 16.8211L88.4868 16.6507C88.5854 17.1309 88.8242 17.4975 89.2031 17.7505C89.582 17.9983 90.0673 18.1222 90.659 18.1222C91.2403 18.1222 91.7075 18.0112 92.0604 17.7892C92.4186 17.562 92.6002 17.2703 92.6054 16.914C92.6002 16.6146 92.4731 16.3693 92.2239 16.1783C91.9748 15.9821 91.5907 15.8323 91.0716 15.7291L89.0007 15.3186C87.8328 15.0863 86.9634 14.6835 86.3925 14.1104C85.8267 13.5373 85.5438 12.8067 85.5438 11.9186C85.5438 11.1544 85.7514 10.4961 86.1667 9.94366C86.5871 9.39119 87.1762 8.96522 87.934 8.66576C88.697 8.36629 89.5898 8.21655 90.6123 8.21655C92.1227 8.21655 93.3113 8.53409 94.1781 9.16917C95.0501 9.80425 95.5588 10.6691 95.7041 11.7637Z" fill="white"/>
<path d="M80.4376 20.2677V8.37153H83.7543V20.2677H80.4376ZM82.1037 6.83804C81.6106 6.83804 81.1876 6.6754 80.8346 6.35011C80.4869 6.01967 80.313 5.62468 80.313 5.16515C80.313 4.71078 80.4869 4.32096 80.8346 3.99567C81.1876 3.66522 81.6106 3.5 82.1037 3.5C82.5968 3.5 83.0172 3.66522 83.365 3.99567C83.7179 4.32096 83.8944 4.71078 83.8944 5.16515C83.8944 5.62468 83.7179 6.01967 83.365 6.35011C83.0172 6.6754 82.5968 6.83804 82.1037 6.83804Z" fill="white"/>
<path d="M71.2778 8.37158L73.4734 12.5306L75.7234 8.37158H79.1258L75.6611 14.3196L79.2192 20.2677H75.8324L73.4734 16.1552L71.1532 20.2677H67.7275L71.2778 14.3196L67.8521 8.37158H71.2778Z" fill="white"/>
<path d="M59.8564 20.4922C59.0934 20.4922 58.4135 20.3605 57.8166 20.0972C57.2197 19.8287 56.7474 19.4337 56.3996 18.9122C56.057 18.3856 55.8857 17.7298 55.8857 16.945C55.8857 16.2841 56.0077 15.7291 56.2517 15.2799C56.4956 14.8307 56.8278 14.4692 57.2482 14.1956C57.6687 13.9219 58.1462 13.7154 58.6808 13.576C59.2206 13.4366 59.7864 13.3385 60.3781 13.2817C61.0736 13.2094 61.6342 13.1423 62.0598 13.0803C62.4854 13.0132 62.7942 12.9151 62.9863 12.786C63.1783 12.6569 63.2743 12.4659 63.2743 12.2129V12.1664C63.2743 11.6759 63.1186 11.2964 62.8072 11.0279C62.501 10.7595 62.065 10.6252 61.4992 10.6252C60.9023 10.6252 60.4274 10.7569 60.0744 11.0202C59.7215 11.2784 59.4879 11.6036 59.3737 11.9961L56.3062 11.7482C56.4619 11.0254 56.7681 10.4006 57.2249 9.87396C57.6816 9.34214 58.2708 8.93424 58.9922 8.65026C59.7189 8.36112 60.5597 8.21655 61.5148 8.21655C62.1792 8.21655 62.815 8.294 63.4223 8.4489C64.0347 8.6038 64.5771 8.84389 65.0495 9.16917C65.527 9.49446 65.9033 9.91268 66.1784 10.4238C66.4535 10.9298 66.591 11.5365 66.591 12.2439V20.2676H63.4456V18.6179H63.3522C63.1602 18.9897 62.9032 19.3175 62.5814 19.6015C62.2596 19.8803 61.8729 20.0998 61.4214 20.2598C60.9698 20.4147 60.4481 20.4922 59.8564 20.4922ZM60.8063 18.2152C61.2942 18.2152 61.725 18.1197 62.0987 17.9286C62.4724 17.7324 62.7657 17.4691 62.9785 17.1386C63.1913 16.8082 63.2977 16.4339 63.2977 16.0156V14.7532C63.1939 14.8203 63.0512 14.8823 62.8695 14.9391C62.693 14.9907 62.4932 15.0398 62.27 15.0863C62.0468 15.1276 61.8236 15.1663 61.6004 15.2024C61.3772 15.2334 61.1748 15.2618 60.9931 15.2876C60.6039 15.3444 60.2639 15.4348 59.9732 15.5587C59.6826 15.6826 59.4568 15.8504 59.2959 16.0621C59.135 16.2686 59.0545 16.5268 59.0545 16.8366C59.0545 17.2858 59.218 17.6292 59.545 17.8667C59.8772 18.099 60.2976 18.2152 60.8063 18.2152Z" fill="white"/>
<path d="M48.4751 20.2677V8.37156H51.6906V10.4472H51.8151C52.0331 9.70884 52.3991 9.15121 52.9129 8.77429C53.4268 8.39221 54.0185 8.20117 54.6881 8.20117C54.8542 8.20117 55.0332 8.2115 55.2253 8.23215C55.4173 8.2528 55.586 8.2812 55.7313 8.31734V11.2449C55.5756 11.1984 55.3602 11.1571 55.0851 11.121C54.81 11.0848 54.5583 11.0668 54.3299 11.0668C53.842 11.0668 53.406 11.1726 53.0219 11.3843C52.643 11.5908 52.342 11.88 52.1188 12.2517C51.9008 12.6235 51.7918 13.052 51.7918 13.5374V20.2677H48.4751Z" fill="white"/>
<path d="M35 20.2678V4.40625H41.2908C42.5002 4.40625 43.5305 4.63601 44.3817 5.09554C45.233 5.54991 45.8818 6.18241 46.3281 6.99304C46.7797 7.7985 47.0055 8.72789 47.0055 9.78119C47.0055 10.8345 46.7771 11.7639 46.3204 12.5693C45.8636 13.3748 45.2018 14.0021 44.335 14.4514C43.4734 14.9006 42.4301 15.1252 41.2052 15.1252H37.1956V12.4377H40.6602C41.309 12.4377 41.8436 12.3267 42.264 12.1047C42.6896 11.8775 43.0063 11.5651 43.2139 11.1675C43.4267 10.7648 43.5331 10.3027 43.5331 9.78119C43.5331 9.25454 43.4267 8.79501 43.2139 8.4026C43.0063 8.00503 42.6896 7.69782 42.264 7.48097C41.8384 7.25895 41.2986 7.14794 40.6446 7.14794H38.3712V20.2678H35Z" fill="white"/>
<path d="M179.499 10.5625L177.842 11.0312C177.738 10.7552 177.584 10.487 177.381 10.2266C177.183 9.96094 176.913 9.74219 176.569 9.57031C176.225 9.39844 175.785 9.3125 175.249 9.3125C174.514 9.3125 173.902 9.48177 173.413 9.82031C172.928 10.1536 172.686 10.5781 172.686 11.0938C172.686 11.5521 172.853 11.9141 173.186 12.1797C173.519 12.4453 174.04 12.6667 174.749 12.8438L176.53 13.2812C177.603 13.5417 178.402 13.9401 178.928 14.4766C179.454 15.0078 179.717 15.6927 179.717 16.5312C179.717 17.2188 179.519 17.8333 179.124 18.375C178.733 18.9167 178.186 19.3438 177.483 19.6562C176.78 19.9688 175.962 20.125 175.03 20.125C173.806 20.125 172.793 19.8594 171.991 19.3281C171.189 18.7969 170.681 18.0208 170.467 17L172.217 16.5625C172.384 17.2083 172.699 17.6927 173.163 18.0156C173.631 18.3385 174.243 18.5 174.999 18.5C175.858 18.5 176.54 18.3177 177.045 17.9531C177.556 17.5833 177.811 17.1406 177.811 16.625C177.811 16.2083 177.665 15.8594 177.374 15.5781C177.082 15.2917 176.634 15.0781 176.03 14.9375L174.03 14.4688C172.931 14.2083 172.124 13.8047 171.608 13.2578C171.097 12.7057 170.842 12.0156 170.842 11.1875C170.842 10.5104 171.032 9.91146 171.413 9.39062C171.798 8.86979 172.321 8.46094 172.983 8.16406C173.65 7.86719 174.405 7.71875 175.249 7.71875C176.436 7.71875 177.368 7.97917 178.045 8.5C178.728 9.02083 179.212 9.70833 179.499 10.5625Z" fill="#9F9FA9"/>
<path d="M164.245 20.125C163.12 20.125 162.151 19.8594 161.338 19.3281C160.526 18.7969 159.901 18.0651 159.463 17.1328C159.026 16.2005 158.807 15.1354 158.807 13.9375C158.807 12.7188 159.031 11.6432 159.479 10.7109C159.932 9.77344 160.562 9.04167 161.37 8.51562C162.182 7.98438 163.13 7.71875 164.213 7.71875C165.057 7.71875 165.818 7.875 166.495 8.1875C167.172 8.5 167.726 8.9375 168.159 9.5C168.591 10.0625 168.859 10.7187 168.963 11.4688H167.12C166.979 10.9219 166.667 10.4375 166.182 10.0156C165.703 9.58854 165.057 9.375 164.245 9.375C163.526 9.375 162.896 9.5625 162.354 9.9375C161.818 10.3073 161.398 10.8307 161.096 11.5078C160.799 12.1797 160.651 12.9687 160.651 13.875C160.651 14.8021 160.797 15.6094 161.088 16.2969C161.385 16.9844 161.802 17.5182 162.338 17.8984C162.88 18.2786 163.515 18.4688 164.245 18.4688C164.724 18.4688 165.159 18.3854 165.549 18.2188C165.94 18.0521 166.271 17.8125 166.542 17.5C166.812 17.1875 167.005 16.8125 167.12 16.375H168.963C168.859 17.0833 168.601 17.7214 168.19 18.2891C167.784 18.8516 167.245 19.2995 166.573 19.6328C165.906 19.9609 165.13 20.125 164.245 20.125Z" fill="#9F9FA9"/>
<path d="M151.777 20.125C150.694 20.125 149.743 19.8672 148.926 19.3516C148.113 18.8359 147.478 18.1146 147.02 17.1875C146.566 16.2604 146.34 15.1771 146.34 13.9375C146.34 12.6875 146.566 11.5964 147.02 10.6641C147.478 9.73177 148.113 9.00781 148.926 8.49219C149.743 7.97656 150.694 7.71875 151.777 7.71875C152.861 7.71875 153.809 7.97656 154.621 8.49219C155.439 9.00781 156.074 9.73177 156.527 10.6641C156.986 11.5964 157.215 12.6875 157.215 13.9375C157.215 15.1771 156.986 16.2604 156.527 17.1875C156.074 18.1146 155.439 18.8359 154.621 19.3516C153.809 19.8672 152.861 20.125 151.777 20.125ZM151.777 18.4688C152.6 18.4688 153.277 18.2578 153.809 17.8359C154.34 17.4141 154.733 16.8594 154.988 16.1719C155.243 15.4844 155.371 14.7396 155.371 13.9375C155.371 13.1354 155.243 12.388 154.988 11.6953C154.733 11.0026 154.34 10.4427 153.809 10.0156C153.277 9.58854 152.6 9.375 151.777 9.375C150.954 9.375 150.277 9.58854 149.746 10.0156C149.215 10.4427 148.822 11.0026 148.566 11.6953C148.311 12.388 148.184 13.1354 148.184 13.9375C148.184 14.7396 148.311 15.4844 148.566 16.1719C148.822 16.8594 149.215 17.4141 149.746 17.8359C150.277 18.2578 150.954 18.4688 151.777 18.4688Z" fill="#9F9FA9"/>
<path d="M136.938 19.875H132V3.875H137.156C138.708 3.875 140.036 4.19531 141.141 4.83594C142.245 5.47135 143.091 6.38542 143.68 7.57813C144.268 8.76563 144.563 10.1875 144.563 11.8437C144.563 13.5104 144.266 14.9453 143.672 16.1484C143.078 17.3464 142.214 18.2682 141.078 18.9141C139.943 19.5547 138.563 19.875 136.938 19.875ZM133.938 18.1562H136.812C138.135 18.1562 139.232 17.901 140.102 17.3906C140.971 16.8802 141.62 16.1536 142.047 15.2109C142.474 14.2682 142.688 13.1458 142.688 11.8437C142.688 10.5521 142.477 9.4401 142.055 8.50781C141.633 7.57031 141.003 6.85156 140.164 6.35156C139.326 5.84635 138.281 5.59375 137.031 5.59375H133.938V18.1562Z" fill="#9F9FA9"/>
<defs>
<linearGradient id="paint0_linear_44_160" x1="0" y1="12" x2="24" y2="12" gradientUnits="userSpaceOnUse">
<stop stop-color="#5900FF"/>
<stop offset="0.19" stop-color="#00AFEC"/>
<stop offset="0.37" stop-color="#6200FF"/>
<stop offset="0.6" stop-color="#9200FF"/>
<stop offset="0.81" stop-color="#006AFF"/>
<stop offset="1" stop-color="#8800FF"/>
</linearGradient>
</defs>
</svg>
