<svg width="212" height="24" viewBox="0 0 212 24" fill="none" xmlns="http://www.w3.org/2000/svg">
<path fill-rule="evenodd" clip-rule="evenodd" d="M21.901 0C23.0602 0 24 0.935 24 2.0884V21.8334C24 23.03 23.025 24 21.8224 24H2.099C0.9398 24 0 23.065 0 21.9116V2.0884C0 0.935 0.9398 0 2.099 0H21.901Z" fill="url(#paint0_linear_80_65)"/>
<path d="M17.7938 6.133C17.0932 5.4324 16.1264 5 15.0582 5H5.4736V19H8.059V12.736H15.0582C17.2928 12.736 18.9266 11.0038 18.9266 8.8676C18.9266 7.7994 18.4936 6.8326 17.7938 6.133ZM15.0582 10.0724H8.1372V7.6636H15.0582C15.7224 7.6636 16.263 8.2034 16.263 8.8676C16.263 9.5318 15.7222 10.0724 15.0582 10.0724Z" fill="white"/>
<path d="M121.296 4.33984V20.3398H117.913V4.33984H121.296Z" fill="white"/>
<path d="M104.874 20.3398H101.249L106.773 4.33984H111.132L116.648 20.3398H113.023L109.015 7.99609H108.89L104.874 20.3398ZM104.648 14.0508H113.21V16.6914H104.648V14.0508Z" fill="white"/>
<path d="M95.9129 11.7617L92.866 11.9492C92.8139 11.6888 92.702 11.4544 92.5301 11.2461C92.3582 11.0326 92.1316 10.8633 91.8504 10.7383C91.5743 10.6081 91.2436 10.543 90.8582 10.543C90.3426 10.543 89.9077 10.6523 89.5535 10.8711C89.1993 11.0846 89.0223 11.3711 89.0223 11.7305C89.0223 12.0169 89.1368 12.2591 89.366 12.457C89.5952 12.6549 89.9884 12.8138 90.5457 12.9336L92.7176 13.3711C93.8842 13.6107 94.754 13.9961 95.327 14.5273C95.8999 15.0586 96.1863 15.7565 96.1863 16.6211C96.1863 17.4076 95.9546 18.0977 95.491 18.6914C95.0327 19.2852 94.4025 19.7487 93.6004 20.082C92.8035 20.4102 91.8842 20.5742 90.8426 20.5742C89.254 20.5742 87.9884 20.2435 87.0457 19.582C86.1082 18.9154 85.5587 18.0091 85.3973 16.8633L88.6707 16.6914C88.7697 17.1758 89.0092 17.5456 89.3895 17.8008C89.7697 18.0508 90.2566 18.1758 90.8504 18.1758C91.4337 18.1758 91.9025 18.0638 92.2566 17.8398C92.616 17.6107 92.7983 17.3164 92.8035 16.957C92.7983 16.6549 92.6707 16.4076 92.4207 16.2148C92.1707 16.0169 91.7853 15.8659 91.2645 15.7617L89.1863 15.3477C88.0144 15.1133 87.1421 14.707 86.5691 14.1289C86.0014 13.5508 85.7176 12.8138 85.7176 11.918C85.7176 11.1471 85.9259 10.4831 86.3426 9.92578C86.7645 9.36849 87.3556 8.9388 88.116 8.63672C88.8816 8.33464 89.7775 8.18359 90.8035 8.18359C92.3191 8.18359 93.5118 8.50391 94.3816 9.14453C95.2566 9.78516 95.7671 10.6576 95.9129 11.7617Z" fill="white"/>
<path d="M80.5944 20.3398V8.33984H83.9225V20.3398H80.5944ZM82.2663 6.79297C81.7715 6.79297 81.347 6.62891 80.9928 6.30078C80.6439 5.96745 80.4694 5.56901 80.4694 5.10547C80.4694 4.64714 80.6439 4.25391 80.9928 3.92578C81.347 3.59245 81.7715 3.42578 82.2663 3.42578C82.761 3.42578 83.1829 3.59245 83.5319 3.92578C83.886 4.25391 84.0631 4.64714 84.0631 5.10547C84.0631 5.56901 83.886 5.96745 83.5319 6.30078C83.1829 6.62891 82.761 6.79297 82.2663 6.79297Z" fill="white"/>
<path d="M71.4028 8.33984L73.6059 12.5352L75.8638 8.33984H79.2778L75.8013 14.3398L79.3716 20.3398H75.9731L73.6059 16.1914L71.2778 20.3398H67.8403L71.4028 14.3398L67.9653 8.33984H71.4028Z" fill="white"/>
<path d="M59.9417 20.5664C59.1761 20.5664 58.4938 20.4336 57.8948 20.168C57.2959 19.8971 56.8219 19.4987 56.473 18.9727C56.1292 18.4414 55.9573 17.7799 55.9573 16.9883C55.9573 16.3216 56.0797 15.7617 56.3245 15.3086C56.5693 14.8555 56.9027 14.4909 57.3245 14.2148C57.7464 13.9388 58.2256 13.7305 58.762 13.5898C59.3037 13.4492 59.8714 13.3503 60.4652 13.293C61.1631 13.2201 61.7256 13.1523 62.1527 13.0898C62.5797 13.0221 62.8896 12.9232 63.0823 12.793C63.2751 12.6628 63.3714 12.4701 63.3714 12.2148V12.168C63.3714 11.6732 63.2152 11.2904 62.9027 11.0195C62.5954 10.7487 62.1579 10.6133 61.5902 10.6133C60.9912 10.6133 60.5146 10.7461 60.1605 11.0117C59.8063 11.2721 59.5719 11.6003 59.4573 11.9961L56.3792 11.7461C56.5355 11.0169 56.8428 10.3867 57.3011 9.85547C57.7594 9.31901 58.3506 8.90755 59.0745 8.62109C59.8037 8.32943 60.6474 8.18359 61.6058 8.18359C62.2724 8.18359 62.9105 8.26172 63.5198 8.41797C64.1344 8.57422 64.6787 8.81641 65.1527 9.14453C65.6318 9.47266 66.0094 9.89453 66.2855 10.4102C66.5615 10.9206 66.6995 11.5326 66.6995 12.2461V20.3398H63.5433V18.6758H63.4495C63.2568 19.0508 62.999 19.3815 62.6761 19.668C62.3532 19.9492 61.9652 20.1706 61.512 20.332C61.0589 20.4883 60.5355 20.5664 59.9417 20.5664ZM60.8948 18.2695C61.3844 18.2695 61.8167 18.1732 62.1917 17.9805C62.5667 17.7826 62.861 17.5169 63.0745 17.1836C63.2881 16.8503 63.3948 16.4727 63.3948 16.0508V14.7773C63.2907 14.8451 63.1474 14.9076 62.9652 14.9648C62.7881 15.0169 62.5876 15.0664 62.3636 15.1133C62.1396 15.1549 61.9157 15.194 61.6917 15.2305C61.4678 15.2617 61.2646 15.2904 61.0823 15.3164C60.6917 15.3737 60.3506 15.4648 60.0589 15.5898C59.7672 15.7148 59.5407 15.8841 59.3792 16.0977C59.2178 16.306 59.137 16.5664 59.137 16.8789C59.137 17.332 59.3011 17.6784 59.6292 17.918C59.9626 18.1523 60.3844 18.2695 60.8948 18.2695Z" fill="white"/>
<path d="M48.5216 20.3398V8.33984H51.7482V10.4336H51.8732C52.092 9.6888 52.4591 9.1263 52.9748 8.74609C53.4904 8.36068 54.0841 8.16797 54.756 8.16797C54.9227 8.16797 55.1024 8.17838 55.2951 8.19922C55.4878 8.22005 55.6571 8.2487 55.8029 8.28516V11.2383C55.6466 11.1914 55.4305 11.1497 55.1545 11.1133C54.8784 11.0768 54.6258 11.0586 54.3966 11.0586C53.9071 11.0586 53.4696 11.1654 53.0841 11.3789C52.7039 11.5872 52.4018 11.8789 52.1779 12.2539C51.9591 12.6289 51.8498 13.0612 51.8498 13.5508V20.3398H48.5216Z" fill="white"/>
<path d="M35 20.3398V4.33984H41.3125C42.526 4.33984 43.5599 4.57161 44.4141 5.03516C45.2682 5.49349 45.9193 6.13151 46.3672 6.94922C46.8203 7.76172 47.0469 8.69922 47.0469 9.76172C47.0469 10.8242 46.8177 11.7617 46.3594 12.5742C45.901 13.3867 45.237 14.0195 44.3672 14.4727C43.5026 14.9258 42.4557 15.1523 41.2266 15.1523H37.2031V12.4414H40.6797C41.3307 12.4414 41.8672 12.3294 42.2891 12.1055C42.7161 11.8763 43.0339 11.5612 43.2422 11.1602C43.4557 10.7539 43.5625 10.2878 43.5625 9.76172C43.5625 9.23047 43.4557 8.76693 43.2422 8.37109C43.0339 7.97005 42.7161 7.66016 42.2891 7.44141C41.862 7.21745 41.3203 7.10547 40.6641 7.10547H38.3828V20.3398H35Z" fill="white"/>
<path d="M195.746 20.2344V8.23438H197.528V10.1094H197.684C197.934 9.46875 198.338 8.97135 198.895 8.61719C199.452 8.25781 200.121 8.07812 200.903 8.07812C201.694 8.07812 202.353 8.25781 202.879 8.61719C203.411 8.97135 203.825 9.46875 204.121 10.1094H204.246C204.554 9.48958 205.015 8.9974 205.629 8.63281C206.244 8.26302 206.981 8.07812 207.84 8.07812C208.913 8.07812 209.791 8.41406 210.473 9.08594C211.155 9.7526 211.496 10.7917 211.496 12.2031V20.2344H209.653V12.2031C209.653 11.3177 209.411 10.6849 208.926 10.3047C208.442 9.92448 207.871 9.73438 207.215 9.73438C206.371 9.73438 205.718 9.98958 205.254 10.5C204.791 11.0052 204.559 11.6458 204.559 12.4219V20.2344H202.684V12.0156C202.684 11.3333 202.463 10.7839 202.02 10.3672C201.577 9.94531 201.007 9.73438 200.309 9.73438C199.83 9.73438 199.382 9.86198 198.965 10.1172C198.554 10.3724 198.22 10.7266 197.965 11.1797C197.715 11.6276 197.59 12.1458 197.59 12.7344V20.2344H195.746Z" fill="#9F9FA9"/>
<path d="M188.221 20.2344V8.23438H190.002V10.0469H190.127C190.346 9.45313 190.742 8.97135 191.315 8.60156C191.888 8.23177 192.533 8.04688 193.252 8.04688C193.388 8.04688 193.557 8.04948 193.76 8.05469C193.963 8.0599 194.117 8.06771 194.221 8.07813V9.95313C194.158 9.9375 194.015 9.91406 193.791 9.88281C193.573 9.84635 193.341 9.82813 193.096 9.82813C192.513 9.82813 191.992 9.95052 191.533 10.1953C191.08 10.4349 190.721 10.7682 190.455 11.1953C190.195 11.6172 190.065 12.099 190.065 12.6406V20.2344H188.221Z" fill="#9F9FA9"/>
<path d="M180.629 20.4844C179.546 20.4844 178.595 20.2266 177.777 19.7109C176.965 19.1953 176.33 18.474 175.871 17.5469C175.418 16.6198 175.191 15.5365 175.191 14.2969C175.191 13.0469 175.418 11.9557 175.871 11.0234C176.33 10.0911 176.965 9.36719 177.777 8.85156C178.595 8.33594 179.546 8.07812 180.629 8.07812C181.712 8.07812 182.66 8.33594 183.473 8.85156C184.29 9.36719 184.926 10.0911 185.379 11.0234C185.837 11.9557 186.066 13.0469 186.066 14.2969C186.066 15.5365 185.837 16.6198 185.379 17.5469C184.926 18.474 184.29 19.1953 183.473 19.7109C182.66 20.2266 181.712 20.4844 180.629 20.4844ZM180.629 18.8281C181.452 18.8281 182.129 18.6172 182.66 18.1953C183.191 17.7734 183.585 17.2188 183.84 16.5312C184.095 15.8438 184.223 15.099 184.223 14.2969C184.223 13.4948 184.095 12.7474 183.84 12.0547C183.585 11.362 183.191 10.8021 182.66 10.375C182.129 9.94792 181.452 9.73438 180.629 9.73438C179.806 9.73438 179.129 9.94792 178.598 10.375C178.066 10.8021 177.673 11.362 177.418 12.0547C177.163 12.7474 177.035 13.4948 177.035 14.2969C177.035 15.099 177.163 15.8438 177.418 16.5312C177.673 17.2188 178.066 17.7734 178.598 18.1953C179.129 18.6172 179.806 18.8281 180.629 18.8281Z" fill="#9F9FA9"/>
<path d="M174.324 8.23438V9.79688H167.855V8.23438H174.324ZM169.793 20.2344V6.57813C169.793 5.89063 169.954 5.31771 170.277 4.85938C170.6 4.40104 171.019 4.05729 171.535 3.82812C172.051 3.59896 172.595 3.48438 173.168 3.48438C173.621 3.48438 173.991 3.52083 174.277 3.59375C174.564 3.66667 174.777 3.73437 174.918 3.79688L174.387 5.39063C174.293 5.35938 174.163 5.32031 173.996 5.27344C173.835 5.22656 173.621 5.20312 173.355 5.20312C172.746 5.20312 172.306 5.35677 172.035 5.66406C171.769 5.97135 171.637 6.42188 171.637 7.01562V20.2344H169.793Z" fill="#9F9FA9"/>
<path d="M166.867 8.23438V9.79687H160.648V8.23438H166.867ZM162.461 5.35938H164.304V16.7969C164.304 17.3177 164.38 17.7083 164.531 17.9688C164.687 18.224 164.885 18.3958 165.125 18.4844C165.37 18.5677 165.627 18.6094 165.898 18.6094C166.101 18.6094 166.268 18.599 166.398 18.5781C166.528 18.5521 166.633 18.5312 166.711 18.5156L167.086 20.1719C166.961 20.2188 166.786 20.2656 166.562 20.3125C166.338 20.3646 166.054 20.3906 165.711 20.3906C165.19 20.3906 164.679 20.2786 164.179 20.0547C163.685 19.8307 163.273 19.4896 162.945 19.0312C162.622 18.5729 162.461 17.9948 162.461 17.2969V5.35938Z" fill="#9F9FA9"/>
<path d="M153.443 20.5156C152.683 20.5156 151.992 20.3724 151.373 20.0859C150.753 19.7943 150.261 19.375 149.896 18.8281C149.532 18.276 149.349 17.6094 149.349 16.8281C149.349 16.1406 149.485 15.5833 149.755 15.1562C150.026 14.724 150.388 14.3854 150.841 14.1406C151.295 13.8958 151.795 13.7135 152.341 13.5938C152.893 13.4688 153.448 13.3698 154.005 13.2969C154.735 13.2031 155.326 13.1328 155.779 13.0859C156.237 13.0339 156.571 12.9479 156.779 12.8281C156.992 12.7083 157.099 12.5 157.099 12.2031V12.1406C157.099 11.3698 156.888 10.7708 156.466 10.3438C156.05 9.91667 155.417 9.70312 154.568 9.70312C153.688 9.70312 152.998 9.89583 152.498 10.2812C151.998 10.6667 151.646 11.0781 151.443 11.5156L149.693 10.8906C150.005 10.1615 150.422 9.59375 150.943 9.1875C151.469 8.77604 152.042 8.48958 152.662 8.32812C153.287 8.16146 153.901 8.07812 154.505 8.07812C154.891 8.07812 155.334 8.125 155.834 8.21875C156.339 8.30729 156.826 8.49219 157.295 8.77344C157.768 9.05469 158.162 9.47917 158.474 10.0469C158.787 10.6146 158.943 11.375 158.943 12.3281V20.2344H157.099V18.6094H157.005C156.88 18.8698 156.672 19.1484 156.38 19.4453C156.089 19.7422 155.701 19.9948 155.216 20.2031C154.732 20.4115 154.141 20.5156 153.443 20.5156ZM153.724 18.8594C154.453 18.8594 155.068 18.7161 155.568 18.4297C156.073 18.1432 156.453 17.7734 156.709 17.3203C156.969 16.8672 157.099 16.3906 157.099 15.8906V14.2031C157.021 14.2969 156.849 14.3828 156.584 14.4609C156.323 14.5339 156.021 14.599 155.677 14.6562C155.339 14.7083 155.008 14.7552 154.685 14.7969C154.367 14.8333 154.11 14.8646 153.912 14.8906C153.433 14.9531 152.985 15.0547 152.568 15.1953C152.157 15.3307 151.823 15.5365 151.568 15.8125C151.318 16.0833 151.193 16.4531 151.193 16.9219C151.193 17.5625 151.43 18.0469 151.904 18.375C152.383 18.6979 152.99 18.8594 153.724 18.8594Z" fill="#9F9FA9"/>
<path d="M147.195 4.23438V20.2344H145.351V4.23438H147.195Z" fill="#9F9FA9"/>
<path d="M132.296 20.2344V4.23438H137.702C138.958 4.23438 139.984 4.46094 140.781 4.91406C141.583 5.36198 142.176 5.96875 142.562 6.73438C142.947 7.5 143.14 8.35417 143.14 9.29688C143.14 10.2396 142.947 11.0964 142.562 11.8672C142.182 12.638 141.593 13.2526 140.796 13.7109C139.999 14.1641 138.978 14.3906 137.734 14.3906H133.859V12.6719H137.671C138.531 12.6719 139.221 12.5234 139.741 12.2266C140.262 11.9297 140.64 11.5286 140.874 11.0234C141.114 10.513 141.234 9.9375 141.234 9.29688C141.234 8.65625 141.114 8.08333 140.874 7.57812C140.64 7.07292 140.26 6.67708 139.734 6.39063C139.208 6.09896 138.51 5.95312 137.64 5.95312H134.234V20.2344H132.296Z" fill="#9F9FA9"/>
<defs>
<linearGradient id="paint0_linear_80_65" x1="0" y1="12" x2="24" y2="12" gradientUnits="userSpaceOnUse">
<stop stop-color="#5900FF"/>
<stop offset="0.19" stop-color="#00AFEC"/>
<stop offset="0.37" stop-color="#6200FF"/>
<stop offset="0.6" stop-color="#9200FF"/>
<stop offset="0.81" stop-color="#006AFF"/>
<stop offset="1" stop-color="#8800FF"/>
</linearGradient>
</defs>
</svg>
