<svg width="219" height="27" viewBox="0 0 219 27" fill="none" xmlns="http://www.w3.org/2000/svg">
<path fill-rule="evenodd" clip-rule="evenodd" d="M21.901 1.5C23.0602 1.5 24 2.435 24 3.5884V23.3334C24 24.53 23.025 25.5 21.8224 25.5H2.099C0.9398 25.5 0 24.565 0 23.4116V3.5884C0 2.435 0.9398 1.5 2.099 1.5H21.901Z" fill="url(#paint0_linear_80_49)"/>
<path d="M17.7938 7.633C17.0932 6.9324 16.1264 6.5 15.0582 6.5H5.4736V20.5H8.059V14.236H15.0582C17.2928 14.236 18.9266 12.5038 18.9266 10.3676C18.9266 9.2994 18.4936 8.3326 17.7938 7.633ZM15.0582 11.5724H8.1372V9.1636H15.0582C15.7224 9.1636 16.263 9.7034 16.263 10.3676C16.263 11.0318 15.7222 11.5724 15.0582 11.5724Z" fill="white"/>
<path d="M36.3906 22V6H42.7031C43.9167 6 44.9505 6.23177 45.8047 6.69531C46.6589 7.15365 47.3099 7.79167 47.7578 8.60937C48.2109 9.42187 48.4375 10.3594 48.4375 11.4219C48.4375 12.4844 48.2083 13.4219 47.75 14.2344C47.2917 15.0469 46.6276 15.6797 45.7578 16.1328C44.8932 16.5859 43.8464 16.8125 42.6172 16.8125H38.5938V14.1016H42.0703C42.7214 14.1016 43.2578 13.9896 43.6797 13.7656C44.1068 13.5365 44.4245 13.2214 44.6328 12.8203C44.8464 12.4141 44.9531 11.9479 44.9531 11.4219C44.9531 10.8906 44.8464 10.4271 44.6328 10.0312C44.4245 9.63021 44.1068 9.32031 43.6797 9.10156C43.2526 8.8776 42.7109 8.76562 42.0547 8.76562H39.7734V22H36.3906ZM49.9123 22V10H53.1388V12.0937H53.2638C53.4826 11.349 53.8498 10.7865 54.3654 10.4063C54.881 10.0208 55.4748 9.82812 56.1466 9.82812C56.3133 9.82812 56.493 9.83854 56.6857 9.85937C56.8784 9.88021 57.0477 9.90885 57.1935 9.94531V12.8984C57.0373 12.8516 56.8211 12.8099 56.5451 12.7734C56.269 12.737 56.0164 12.7188 55.7873 12.7188C55.2977 12.7188 54.8602 12.8255 54.4748 13.0391C54.0946 13.2474 53.7925 13.5391 53.5685 13.9141C53.3498 14.2891 53.2404 14.7214 53.2404 15.2109V22H49.9123ZM61.3323 22.2266C60.5667 22.2266 59.8844 22.0938 59.2855 21.8281C58.6865 21.5573 58.2126 21.1589 57.8636 20.6328C57.5198 20.1016 57.348 19.4401 57.348 18.6484C57.348 17.9818 57.4704 17.4219 57.7152 16.9687C57.9599 16.5156 58.2933 16.151 58.7152 15.875C59.137 15.599 59.6162 15.3906 60.1527 15.25C60.6943 15.1094 61.262 15.0104 61.8558 14.9531C62.5537 14.8802 63.1162 14.8125 63.5433 14.75C63.9704 14.6823 64.2803 14.5833 64.473 14.4531C64.6657 14.3229 64.762 14.1302 64.762 13.875V13.8281C64.762 13.3333 64.6058 12.9505 64.2933 12.6797C63.986 12.4089 63.5485 12.2734 62.9808 12.2734C62.3818 12.2734 61.9053 12.4062 61.5511 12.6719C61.1969 12.9323 60.9626 13.2604 60.848 13.6562L57.7698 13.4062C57.9261 12.6771 58.2334 12.0469 58.6917 11.5156C59.1501 10.9792 59.7412 10.5677 60.4652 10.2812C61.1943 9.98958 62.0381 9.84375 62.9964 9.84375C63.6631 9.84375 64.3011 9.92187 64.9105 10.0781C65.5251 10.2344 66.0693 10.4766 66.5433 10.8047C67.0224 11.1328 67.4001 11.5547 67.6761 12.0703C67.9521 12.5807 68.0902 13.1927 68.0902 13.9062V22H64.9339V20.3359H64.8402C64.6474 20.7109 64.3896 21.0417 64.0667 21.3281C63.7438 21.6094 63.3558 21.8307 62.9027 21.9922C62.4495 22.1484 61.9261 22.2266 61.3323 22.2266ZM62.2855 19.9297C62.7751 19.9297 63.2073 19.8333 63.5823 19.6406C63.9573 19.4427 64.2516 19.1771 64.4652 18.8438C64.6787 18.5104 64.7855 18.1328 64.7855 17.7109V16.4375C64.6813 16.5052 64.5381 16.5677 64.3558 16.625C64.1787 16.6771 63.9782 16.7266 63.7542 16.7734C63.5303 16.8151 63.3063 16.8542 63.0823 16.8906C62.8584 16.9219 62.6553 16.9505 62.473 16.9766C62.0823 17.0339 61.7412 17.125 61.4495 17.25C61.1579 17.375 60.9313 17.5443 60.7698 17.7578C60.6084 17.9661 60.5277 18.2266 60.5277 18.5391C60.5277 18.9922 60.6917 19.3385 61.0198 19.5781C61.3532 19.8125 61.7751 19.9297 62.2855 19.9297ZM72.7934 10L74.9966 14.1953L77.2544 10H80.6684L77.1919 16L80.7622 22H77.3638L74.9966 17.8516L72.6684 22H69.2309L72.7934 16L69.3559 10H72.7934ZM81.985 22V10H85.3131V22H81.985ZM83.6569 8.45312C83.1621 8.45312 82.7376 8.28906 82.3834 7.96094C82.0345 7.6276 81.86 7.22917 81.86 6.76562C81.86 6.30729 82.0345 5.91406 82.3834 5.58594C82.7376 5.2526 83.1621 5.08594 83.6569 5.08594C84.1517 5.08594 84.5735 5.2526 84.9225 5.58594C85.2767 5.91406 85.4538 6.30729 85.4538 6.76562C85.4538 7.22917 85.2767 7.6276 84.9225 7.96094C84.5735 8.28906 84.1517 8.45312 83.6569 8.45312ZM97.3035 13.4219L94.2566 13.6094C94.2046 13.349 94.0926 13.1146 93.9207 12.9062C93.7488 12.6927 93.5223 12.5234 93.241 12.3984C92.965 12.2682 92.6342 12.2031 92.2488 12.2031C91.7332 12.2031 91.2983 12.3125 90.9441 12.5312C90.59 12.7448 90.4129 13.0312 90.4129 13.3906C90.4129 13.6771 90.5275 13.9193 90.7566 14.1172C90.9858 14.3151 91.379 14.474 91.9363 14.5937L94.1082 15.0312C95.2749 15.2708 96.1447 15.6562 96.7176 16.1875C97.2905 16.7187 97.577 17.4167 97.577 18.2812C97.577 19.0677 97.3452 19.7578 96.8816 20.3516C96.4233 20.9453 95.7931 21.4089 94.991 21.7422C94.1941 22.0703 93.2749 22.2344 92.2332 22.2344C90.6447 22.2344 89.379 21.9036 88.4363 21.2422C87.4988 20.5755 86.9493 19.6693 86.7879 18.5234L90.0613 18.3516C90.1603 18.8359 90.3999 19.2057 90.7801 19.4609C91.1603 19.7109 91.6473 19.8359 92.241 19.8359C92.8243 19.8359 93.2931 19.724 93.6473 19.5C94.0066 19.2708 94.1889 18.9766 94.1941 18.6172C94.1889 18.3151 94.0613 18.0677 93.8113 17.875C93.5613 17.6771 93.1759 17.526 92.6551 17.4219L90.577 17.0078C89.4051 16.7734 88.5327 16.3672 87.9598 15.7891C87.3921 15.2109 87.1082 14.474 87.1082 13.5781C87.1082 12.8073 87.3165 12.1432 87.7332 11.5859C88.1551 11.0286 88.7462 10.599 89.5066 10.2969C90.2723 9.99479 91.1681 9.84375 92.1941 9.84375C93.7098 9.84375 94.9025 10.1641 95.7723 10.8047C96.6473 11.4453 97.1577 12.3177 97.3035 13.4219ZM106.265 22H102.64L108.163 6H112.523L118.038 22H114.413L110.405 9.65625H110.28L106.265 22ZM106.038 15.7109H114.601V18.3516H106.038V15.7109ZM122.687 6V22H119.304V6H122.687Z" fill="black"/>
<path d="M137.938 22V6H143.344C144.599 6 145.625 6.22656 146.422 6.67969C147.224 7.1276 147.818 7.73438 148.203 8.5C148.589 9.26562 148.781 10.1198 148.781 11.0625C148.781 12.0052 148.589 12.862 148.203 13.6328C147.823 14.4036 147.234 15.0182 146.438 15.4766C145.641 15.9297 144.62 16.1562 143.375 16.1562H139.5V14.4375H143.313C144.172 14.4375 144.862 14.2891 145.383 13.9922C145.904 13.6953 146.281 13.2943 146.516 12.7891C146.755 12.2786 146.875 11.7031 146.875 11.0625C146.875 10.4219 146.755 9.84896 146.516 9.34375C146.281 8.83854 145.901 8.44271 145.375 8.15625C144.849 7.86458 144.151 7.71875 143.281 7.71875H139.875V22H137.938ZM152.836 6V22H150.992V6H152.836ZM159.084 22.2813C158.324 22.2813 157.634 22.138 157.014 21.8516C156.394 21.5599 155.902 21.1406 155.537 20.5938C155.173 20.0417 154.991 19.375 154.991 18.5937C154.991 17.9062 155.126 17.349 155.397 16.9219C155.668 16.4896 156.03 16.151 156.483 15.9062C156.936 15.6615 157.436 15.4792 157.983 15.3594C158.535 15.2344 159.09 15.1354 159.647 15.0625C160.376 14.9687 160.967 14.8984 161.42 14.8516C161.879 14.7995 162.212 14.7135 162.42 14.5937C162.634 14.474 162.741 14.2656 162.741 13.9687V13.9062C162.741 13.1354 162.53 12.5365 162.108 12.1094C161.691 11.6823 161.058 11.4687 160.209 11.4687C159.329 11.4687 158.639 11.6615 158.139 12.0469C157.639 12.4323 157.287 12.8437 157.084 13.2812L155.334 12.6562C155.647 11.9271 156.063 11.3594 156.584 10.9531C157.11 10.5417 157.683 10.2552 158.303 10.0937C158.928 9.92708 159.543 9.84375 160.147 9.84375C160.532 9.84375 160.975 9.89062 161.475 9.98437C161.98 10.0729 162.467 10.2578 162.936 10.5391C163.41 10.8203 163.803 11.2448 164.116 11.8125C164.428 12.3802 164.584 13.1406 164.584 14.0938V22H162.741V20.375H162.647C162.522 20.6354 162.313 20.9141 162.022 21.2109C161.73 21.5078 161.342 21.7604 160.858 21.9687C160.373 22.1771 159.782 22.2813 159.084 22.2813ZM159.366 20.625C160.095 20.625 160.709 20.4818 161.209 20.1953C161.715 19.9089 162.095 19.5391 162.35 19.0859C162.61 18.6328 162.741 18.1562 162.741 17.6562V15.9687C162.662 16.0625 162.491 16.1484 162.225 16.2266C161.965 16.2995 161.662 16.3646 161.319 16.4219C160.98 16.474 160.649 16.5208 160.326 16.5625C160.009 16.599 159.751 16.6302 159.553 16.6562C159.074 16.7187 158.626 16.8203 158.209 16.9609C157.798 17.0964 157.465 17.3021 157.209 17.5781C156.959 17.849 156.834 18.2187 156.834 18.6875C156.834 19.3281 157.071 19.8125 157.545 20.1406C158.024 20.4635 158.631 20.625 159.366 20.625ZM172.508 10V11.5625H166.29V10H172.508ZM168.102 7.125H169.946V18.5625C169.946 19.0833 170.021 19.474 170.172 19.7344C170.329 19.9896 170.527 20.1615 170.766 20.25C171.011 20.3333 171.269 20.375 171.54 20.375C171.743 20.375 171.909 20.3646 172.04 20.3437C172.17 20.3177 172.274 20.2969 172.352 20.2812L172.727 21.9375C172.602 21.9844 172.428 22.0313 172.204 22.0781C171.98 22.1302 171.696 22.1563 171.352 22.1563C170.831 22.1563 170.321 22.0443 169.821 21.8203C169.326 21.5964 168.915 21.2552 168.586 20.7969C168.263 20.3385 168.102 19.7604 168.102 19.0625V7.125ZM179.965 10V11.5625H173.497V10H179.965ZM175.434 22V8.34375C175.434 7.65625 175.596 7.08333 175.919 6.625C176.242 6.16667 176.661 5.82292 177.176 5.59375C177.692 5.36458 178.236 5.25 178.809 5.25C179.262 5.25 179.632 5.28646 179.919 5.35937C180.205 5.43229 180.419 5.5 180.559 5.5625L180.028 7.15625C179.934 7.125 179.804 7.08594 179.637 7.03906C179.476 6.99219 179.262 6.96875 178.997 6.96875C178.387 6.96875 177.947 7.1224 177.676 7.42969C177.411 7.73698 177.278 8.1875 177.278 8.78125V22H175.434ZM186.27 22.25C185.187 22.25 184.236 21.9922 183.419 21.4766C182.606 20.9609 181.971 20.2396 181.513 19.3125C181.059 18.3854 180.833 17.3021 180.833 16.0625C180.833 14.8125 181.059 13.7214 181.513 12.7891C181.971 11.8568 182.606 11.1328 183.419 10.6172C184.236 10.1016 185.187 9.84375 186.27 9.84375C187.354 9.84375 188.302 10.1016 189.114 10.6172C189.932 11.1328 190.567 11.8568 191.02 12.7891C191.479 13.7214 191.708 14.8125 191.708 16.0625C191.708 17.3021 191.479 18.3854 191.02 19.3125C190.567 20.2396 189.932 20.9609 189.114 21.4766C188.302 21.9922 187.354 22.25 186.27 22.25ZM186.27 20.5938C187.093 20.5938 187.77 20.3828 188.302 19.9609C188.833 19.5391 189.226 18.9844 189.481 18.2969C189.736 17.6094 189.864 16.8646 189.864 16.0625C189.864 15.2604 189.736 14.513 189.481 13.8203C189.226 13.1276 188.833 12.5677 188.302 12.1406C187.77 11.7135 187.093 11.5 186.27 11.5C185.447 11.5 184.77 11.7135 184.239 12.1406C183.708 12.5677 183.315 13.1276 183.059 13.8203C182.804 14.513 182.677 15.2604 182.677 16.0625C182.677 16.8646 182.804 17.6094 183.059 18.2969C183.315 18.9844 183.708 19.5391 184.239 19.9609C184.77 20.3828 185.447 20.5938 186.27 20.5938ZM193.862 22V10H195.644V11.8125H195.769C195.987 11.2188 196.383 10.737 196.956 10.3672C197.529 9.99739 198.175 9.8125 198.894 9.8125C199.029 9.8125 199.198 9.8151 199.401 9.82031C199.604 9.82552 199.758 9.83333 199.862 9.84375V11.7187C199.8 11.7031 199.657 11.6797 199.433 11.6484C199.214 11.612 198.982 11.5937 198.737 11.5937C198.154 11.5937 197.633 11.7161 197.175 11.9609C196.722 12.2005 196.362 12.5339 196.097 12.9609C195.836 13.3828 195.706 13.8646 195.706 14.4062V22H193.862ZM201.388 22V10H203.169V11.875H203.325C203.575 11.2344 203.979 10.737 204.536 10.3828C205.094 10.0234 205.763 9.84375 206.544 9.84375C207.336 9.84375 207.995 10.0234 208.521 10.3828C209.052 10.737 209.466 11.2344 209.763 11.875H209.888C210.195 11.2552 210.656 10.763 211.271 10.3984C211.885 10.0286 212.622 9.84375 213.482 9.84375C214.554 9.84375 215.432 10.1797 216.114 10.8516C216.797 11.5182 217.138 12.5573 217.138 13.9687V22H215.294V13.9687C215.294 13.0833 215.052 12.4505 214.568 12.0703C214.083 11.6901 213.513 11.5 212.857 11.5C212.013 11.5 211.359 11.7552 210.896 12.2656C210.432 12.7708 210.2 13.4115 210.2 14.1875V22H208.325V13.7812C208.325 13.099 208.104 12.5495 207.661 12.1328C207.219 11.7109 206.648 11.5 205.95 11.5C205.471 11.5 205.023 11.6276 204.607 11.8828C204.195 12.138 203.862 12.4922 203.607 12.9453C203.357 13.3932 203.232 13.9115 203.232 14.5V22H201.388Z" fill="#9F9FA9"/>
<defs>
<linearGradient id="paint0_linear_80_49" x1="0" y1="13.5" x2="24" y2="13.5" gradientUnits="userSpaceOnUse">
<stop stop-color="#5900FF"/>
<stop offset="0.19" stop-color="#00AFEC"/>
<stop offset="0.37" stop-color="#6200FF"/>
<stop offset="0.6" stop-color="#9200FF"/>
<stop offset="0.81" stop-color="#006AFF"/>
<stop offset="1" stop-color="#8800FF"/>
</linearGradient>
</defs>
</svg>
