<?xml version="1.0" encoding="UTF-8"?>
<svg id="Layer_1" data-name="Layer 1" xmlns="http://www.w3.org/2000/svg" viewBox="0 0 1240.47 286.75">
  <defs>
    <style>
      .cls-1 {
        fill: #f57f3a;
      }

      .cls-2 {
        fill: #010101;
      }
    </style>
  </defs>
  <g>
    <path class="cls-2" d="M0,93.85H9.26l4.56-6.14,.02-73.69-4.56-6.14H0V1.73H44.15c34.18,0,49.27,19.38,49.27,48.02s-23.53,50.24-49.54,50.24H0v-6.14Zm45.95-2.3c19.24,0,25.6-12.18,25.6-36.95,0-26.02-10.24-46.73-28.09-46.73-3.18,0-5.67,.55-7.33,1.11-.97,.42-1.8,.69-2.49,1.11l-.02,77.62c2.89,2.92,8.6,3.84,12.33,3.84Z"/>
    <path class="cls-2" d="M160.25,57.05l-5,24.53h-53.5l.02-6.26s7.96-8.43,8.15-8.62c16.65-17.57,29.74-31.51,29.74-45.99,0-8.98-3.51-14.57-9.65-14.57s-9.93,6.22-9.93,15.53l-.04,4.72h-16.1c-.31-.9-.54-2.74-.54-4.49,0-14.52,14.18-21.9,27.52-21.9s26.44,6.3,26.44,21.35c0,3.68-1,7.27-2.69,10.73-1.69,3.47-4.07,6.79-6.81,9.97-3.38,4-10.74,10.17-17.25,15.32-5.2,4.13-9.87,7.61-11.52,8.85h31.57l8.42-9.16h1.16Z"/>
    <polygon class="cls-2" points="248.62 69.29 242.36 100 169.3 100 169.3 93.84 178.52 93.84 183.14 87.7 183.14 14.02 178.52 7.88 169.3 7.88 169.3 1.72 219.26 1.72 219.26 7.88 207.22 7.88 202.91 14.02 202.91 90.82 226.12 90.82 246.33 69.29 248.62 69.29"/>
    <path class="cls-1" d="M157,90.79v3.83c-2.1,2.1-3.27,3.27-5.37,5.37h-52.88v-3.83l5.37-5.37h52.88Z"/>
  </g>
  <g>
    <g>
      <path class="cls-2" d="M77.26,222.8c10.07-5.31,15.37-14.79,15.37-27.6,0-20.83-15.15-33.77-39.54-33.77H3.81v123.17H53.92c25.38,0,40.53-12.68,40.53-33.93,0-13.58-5.93-23.15-17.19-27.87Zm-49.84,10.46h25.67c11.12,0,17.25,5.25,17.25,14.77,0,10.1-5.96,15.43-17.25,15.43H27.43v-30.2Zm24.35-20.32H27.43v-30.37h23.85c7.87,0,17.25,2.56,17.25,14.77,0,10.06-5.95,15.6-16.75,15.6Z"/>
      <path class="cls-2" d="M202.75,200.32c0-24.35-16.7-38.88-44.66-38.88h-47.3v123.17h23.62v-45.07h23.88l20.47,45.07h25.86l-23.23-50.13c13.99-6.16,21.37-17.94,21.37-34.16Zm-68.35-17.58h23.69c12.74,0,20.05,6.41,20.05,17.58s-7.31,18.07-20.05,18.07h-23.69v-35.65Z"/>
      <rect class="cls-2" x="220.9" y="161.44" width="23.62" height="123.17"/>
      <path class="cls-2" d="M318.46,235.41h36.48c-.32,18.1-12.39,28.88-32.43,28.88-22.55,0-36.56-15.46-36.56-40.36s13.95-42.18,36.4-42.18c15.27,0,25.96,7.25,29.34,19.88l.25,.92h24.67l-.2-1.42c-3.51-24.93-25.04-41.68-53.56-41.68-18.04,0-33.48,6.23-44.65,18.01-11.02,11.63-16.85,27.52-16.85,45.97s5.66,34.24,16.37,45.65c10.65,11.34,25.28,17.33,42.32,17.33,14.73,0,28.08-5.21,35.7-13.76l1.14,11.94h20.2v-70.34h-58.62v21.14Z"/>
      <polygon class="cls-2" points="471.5 211.29 420.5 211.29 420.5 161.44 396.88 161.44 396.88 284.6 420.5 284.6 420.5 233.42 471.5 233.42 471.5 284.6 495.12 284.6 495.12 161.44 471.5 161.44 471.5 211.29"/>
      <polygon class="cls-2" points="508.31 183.4 543.64 183.4 543.64 284.6 567.26 284.6 567.26 183.4 602.59 183.4 602.59 161.44 508.31 161.44 508.31 183.4"/>
      <path class="cls-2" d="M665.16,214.29l-18.97-4.12c-9.62-2.21-13.73-6.54-13.73-14.47,0-9.31,7.75-15.1,20.22-15.1,11.34,0,18.11,5.59,18.57,15.32l.06,1.18h23.6l-.04-1.28c-.68-22.53-16.72-36.53-41.85-36.53s-44.17,15.24-44.17,37.07c0,18.89,11.13,31.3,32.17,35.88l19.16,4.29c9.15,1.98,13.05,6.11,13.05,13.81,0,9.21-8.32,14.94-21.7,14.94s-20.56-5.65-20.71-15.12l-.02-1.22h-23.63l.03,1.27c.51,22.2,17.91,36.54,44.33,36.54s45.32-15,45.32-38.22c0-18.43-10.36-29.63-31.69-34.23Z"/>
      <path class="cls-2" d="M761.97,161.44h-48.95v123.17h23.62v-41.6h25.34c24.64,0,41.19-16.42,41.19-40.86s-16.56-40.7-41.19-40.7Zm-25.34,21.31h21.21c13.36,0,20.71,6.83,20.71,19.23s-7.47,19.72-21.04,19.72h-20.88v-38.95Z"/>
      <path class="cls-2" d="M995.7,242.72c-3.85,12.99-15.98,21.07-31.66,21.07-21.31,0-35.08-16.04-35.08-40.85s13.44-40.69,35.08-40.69c15.47,0,27.06,8,31,21.39l.26,.89h24.67l-.23-1.44c-4.22-26.51-25.89-43.64-55.21-43.64-36,0-60.18,25.58-60.18,63.65s23.23,63.48,59.19,63.48c29.1,0,51.82-17.39,56.53-43.28l.27-1.47h-24.38l-.26,.89Z"/>
      <polygon class="cls-2" points="1113.53 183.4 1113.53 161.44 1036.09 161.44 1036.09 284.6 1113.53 284.6 1113.53 262.64 1059.71 262.64 1059.71 233.09 1107.91 233.09 1107.91 211.95 1059.71 211.95 1059.71 183.4 1113.53 183.4"/>
    </g>
    <g>
      <g>
        <polygon class="cls-2" points="829.01 257.54 804.84 257.54 795.07 284.6 819.57 284.6 829.01 257.54"/>
        <polygon class="cls-2" points="882.07 284.6 906.9 284.6 897.13 257.54 872.62 257.54 882.07 284.6"/>
      </g>
      <path class="cls-1" d="M874.1,238.37c4.17-2.53,8.41-6.06,12.37-10.91l-23.85-66.03h-23.27l-23.47,64.99c4.55,6.32,9.41,10.68,14.16,13.63-4.18-9.5-1-22.37,4.25-31.11,1.27,5.76,3.84,8.39,6.8,10.37-1.98-2.63-3.57-6.61-2.99-12.3,.94-9.28,10.18-16.55,18.86-19.55-3.37,8.04,1.13,11.86,3.06,17.74,3.42-2.3,7.13-4.14,10.77-5.39-6.24,14.87,7.95,18.78,4.55,34.61-.31,1.45-.74,2.76-1.24,3.96Z"/>
    </g>
  </g>
</svg>